<svg xmlns="http://www.w3.org/2000/svg" viewBox="0 0 1200 900" preserveAspectRatio="xMidYMid slice">

  <defs>
    <linearGradient id="g5" x1="0" y1="0" x2="1" y2="1">
      <stop offset="0" stop-color="#e9e5db"/>
      <stop offset="1" stop-color="#d3cdbd"/>
    </linearGradient>
    <filter id="n5">
      <feTurbulence type="fractalNoise" baseFrequency="0.8" numOctaves="2" result="t"/>
      <feColorMatrix in="t" type="matrix" values="0 0 0 0 0.07 0 0 0 0 0.07 0 0 0 0 0.06 0 0 0 0.55 0"/>
      <feComposite operator="in" in2="SourceGraphic"/>
    </filter>
  </defs>
  <rect width="1200" height="900" fill="url(#g5)"/>
  <circle cx="75" cy="75" r="48" fill="#2a2824"/><rect x="462" y="12" width="126" height="126" fill="none" stroke="#2a2824" stroke-width="2.5"/><rect x="1062" y="12" width="126" height="126" fill="none" stroke="#2a2824" stroke-width="2.5"/><line x1="450" y1="150" x2="600" y2="300" stroke="#2a2824" stroke-width="2.5"/><line x1="600" y1="150" x2="750" y2="300" stroke="#2a2824" stroke-width="2.5"/><line x1="750" y1="150" x2="900" y2="300" stroke="#2a2824" stroke-width="2.5"/><rect x="312" y="312" width="126" height="126" fill="none" stroke="#2a2824" stroke-width="2.5"/><circle cx="675" cy="375" r="48" fill="#2a2824"/><line x1="0" y1="450" x2="150" y2="600" stroke="#2a2824" stroke-width="2.5"/><circle cx="225" cy="525" r="48" fill="#2a2824"/><circle cx="375" cy="525" r="48" fill="#2a2824"/><rect x="462" y="462" width="126" height="126" fill="none" stroke="#2a2824" stroke-width="2.5"/><rect x="762" y="462" width="126" height="126" fill="none" stroke="#2a2824" stroke-width="2.5"/><line x1="1050" y1="450" x2="1200" y2="600" stroke="#2a2824" stroke-width="2.5"/><rect x="12" y="612" width="126" height="126" fill="none" stroke="#2a2824" stroke-width="2.5"/><circle cx="675" cy="675" r="48" fill="#2a2824"/><rect x="762" y="612" width="126" height="126" fill="none" stroke="#2a2824" stroke-width="2.5"/><rect x="912" y="612" width="126" height="126" fill="none" stroke="#2a2824" stroke-width="2.5"/><line x1="1050" y1="600" x2="1200" y2="750" stroke="#2a2824" stroke-width="2.5"/><rect x="12" y="762" width="126" height="126" fill="none" stroke="#2a2824" stroke-width="2.5"/><line x1="150" y1="750" x2="300" y2="900" stroke="#2a2824" stroke-width="2.5"/><circle cx="675" cy="825" r="48" fill="#2a2824"/><circle cx="975" cy="825" r="48" fill="#2a2824"/><circle cx="1125" cy="825" r="48" fill="#2a2824"/>
  <rect width="1200" height="900" filter="url(#n5)" opacity="0.16"/>
</svg>