<svg xmlns="http://www.w3.org/2000/svg" viewBox="0 0 1200 900" preserveAspectRatio="xMidYMid slice">

  <defs>
    <linearGradient id="bg7" x1="0" y1="0" x2="1" y2="1">
      <stop offset="0" stop-color="#d3cdbd"/>
      <stop offset="0.55" stop-color="#e9e5db"/>
      <stop offset="1" stop-color="#f1eee7"/>
    </linearGradient>
    <radialGradient id="vig7" cx="50%" cy="46%" r="72%">
      <stop offset="0%" stop-color="#131210" stop-opacity="0"/>
      <stop offset="76%" stop-color="#131210" stop-opacity="0"/>
      <stop offset="100%" stop-color="#131210" stop-opacity="0.2"/>
    </radialGradient>
    <filter id="bokeh7" x="-60%" y="-60%" width="220%" height="220%">
      <feGaussianBlur stdDeviation="53"/>
    </filter>
    <filter id="shadow7" x="-30%" y="-30%" width="160%" height="160%">
      <feDropShadow dx="0" dy="16" stdDeviation="18" flood-color="#131210" flood-opacity="0.25"/>
    </filter>
    <filter id="grain7">
      <feTurbulence type="fractalNoise" baseFrequency="0.85" numOctaves="2" result="t"/>
      <feColorMatrix in="t" type="matrix" values="0 0 0 0 0.07 0 0 0 0 0.07 0 0 0 0 0.06 0 0 0 0.6 0"/>
    </filter>
  </defs>
  <rect width="1200" height="900" fill="url(#bg7)"/>
  <circle cx="815" cy="578" r="302" fill="#131210" opacity="0.10" filter="url(#bokeh7)"/><circle cx="752" cy="563" r="389" fill="#f1eee7" opacity="0.24" filter="url(#bokeh7)"/><circle cx="388" cy="90" r="374" fill="#131210" opacity="0.14" filter="url(#bokeh7)"/><circle cx="477" cy="413" r="313" fill="#dfdacd" opacity="0.24" filter="url(#bokeh7)"/><circle cx="868" cy="599" r="326" fill="#131210" opacity="0.21" filter="url(#bokeh7)"/><circle cx="497" cy="130" r="188" fill="#f1eee7" opacity="0.14" filter="url(#bokeh7)"/>
  <g filter="url(#shadow7)">
    <line x1="-560" y1="900" x2="70" y2="0" stroke="#55524b" stroke-width="2"/><line x1="-490" y1="900" x2="140" y2="0" stroke="#55524b" stroke-width="2"/><line x1="-420" y1="900" x2="210" y2="0" stroke="#55524b" stroke-width="2"/><line x1="-350" y1="900" x2="280" y2="0" stroke="#55524b" stroke-width="9"/><line x1="-280" y1="900" x2="350" y2="0" stroke="#55524b" stroke-width="2"/><line x1="-210" y1="900" x2="420" y2="0" stroke="#55524b" stroke-width="2"/><line x1="-140" y1="900" x2="490" y2="0" stroke="#55524b" stroke-width="2"/><line x1="-70" y1="900" x2="560" y2="0" stroke="#55524b" stroke-width="2"/><line x1="0" y1="900" x2="630" y2="0" stroke="#55524b" stroke-width="9"/><line x1="70" y1="900" x2="700" y2="0" stroke="#55524b" stroke-width="2"/><line x1="140" y1="900" x2="770" y2="0" stroke="#55524b" stroke-width="2"/><line x1="210" y1="900" x2="840" y2="0" stroke="#55524b" stroke-width="2"/><line x1="280" y1="900" x2="910" y2="0" stroke="#55524b" stroke-width="2"/><line x1="350" y1="900" x2="980" y2="0" stroke="#55524b" stroke-width="9"/><line x1="420" y1="900" x2="1050" y2="0" stroke="#55524b" stroke-width="2"/><line x1="490" y1="900" x2="1120" y2="0" stroke="#55524b" stroke-width="2"/><line x1="560" y1="900" x2="1190" y2="0" stroke="#55524b" stroke-width="2"/><line x1="630" y1="900" x2="1260" y2="0" stroke="#55524b" stroke-width="2"/><line x1="700" y1="900" x2="1330" y2="0" stroke="#55524b" stroke-width="9"/><line x1="770" y1="900" x2="1400" y2="0" stroke="#55524b" stroke-width="2"/><line x1="840" y1="900" x2="1470" y2="0" stroke="#55524b" stroke-width="2"/><line x1="910" y1="900" x2="1540" y2="0" stroke="#55524b" stroke-width="2"/><line x1="980" y1="900" x2="1610" y2="0" stroke="#55524b" stroke-width="2"/><line x1="1050" y1="900" x2="1680" y2="0" stroke="#55524b" stroke-width="9"/><line x1="1120" y1="900" x2="1750" y2="0" stroke="#55524b" stroke-width="2"/><line x1="1190" y1="900" x2="1820" y2="0" stroke="#55524b" stroke-width="2"/><line x1="1260" y1="900" x2="1890" y2="0" stroke="#55524b" stroke-width="2"/><line x1="1330" y1="900" x2="1960" y2="0" stroke="#55524b" stroke-width="2"/><line x1="1400" y1="900" x2="2030" y2="0" stroke="#55524b" stroke-width="9"/><line x1="1470" y1="900" x2="2100" y2="0" stroke="#55524b" stroke-width="2"/><line x1="1540" y1="900" x2="2170" y2="0" stroke="#55524b" stroke-width="2"/><line x1="1610" y1="900" x2="2240" y2="0" stroke="#55524b" stroke-width="2"/><line x1="1680" y1="900" x2="2310" y2="0" stroke="#55524b" stroke-width="2"/><line x1="1750" y1="900" x2="2380" y2="0" stroke="#55524b" stroke-width="9"/><circle cx="771" cy="338" r="87" fill="#f1eee7" stroke="#55524b" stroke-width="3"/>
  </g>
  <rect width="1200" height="900" fill="url(#vig7)"/>
  <rect width="1200" height="900" filter="url(#grain7)" opacity="0.07"/>
</svg>