<svg xmlns="http://www.w3.org/2000/svg" viewBox="0 0 1200 900" preserveAspectRatio="xMidYMid slice">

  <defs>
    <linearGradient id="g13" x1="0" y1="0" x2="1" y2="1">
      <stop offset="0" stop-color="#e9e5db"/>
      <stop offset="1" stop-color="#d3cdbd"/>
    </linearGradient>
    <filter id="n13">
      <feTurbulence type="fractalNoise" baseFrequency="0.8" numOctaves="2" result="t"/>
      <feColorMatrix in="t" type="matrix" values="0 0 0 0 0.07 0 0 0 0 0.07 0 0 0 0 0.06 0 0 0 0.55 0"/>
      <feComposite operator="in" in2="SourceGraphic"/>
    </filter>
  </defs>
  <rect width="1200" height="900" fill="url(#g13)"/>
  <path d="M 1085 450 L 1008 687 L 735 783 L 458 799 L 180 694 L 162 450 L 236 238 L 441 57 L 748 85 L 928 259 L 1100 450 Z" fill="none" stroke="#131210" stroke-width="2.5"/><path d="M 970 450 L 900 624 L 691 673 L 493 712 L 286 633 L 275 450 L 357 309 L 475 143 L 710 180 L 833 315 L 965 450 Z" fill="none" stroke="#131210" stroke-width="2.5"/><path d="M 856 450 L 811 572 L 659 595 L 531 620 L 393 570 L 385 450 L 446 360 L 522 258 L 673 270 L 757 359 L 851 450 Z" fill="none" stroke="#131210" stroke-width="2.5"/><path d="M 739 450 L 730 526 L 615 486 L 569 526 L 454 535 L 504 450 L 530 410 L 546 317 L 638 357 L 637 428 L 740 450 Z" fill="#131210" stroke="#131210" stroke-width="2.5"/>
  <rect width="1200" height="900" filter="url(#n13)" opacity="0.16"/>
</svg>