<svg xmlns="http://www.w3.org/2000/svg" viewBox="0 0 1200 900" preserveAspectRatio="xMidYMid slice">
  <defs>
    <linearGradient id="bg-abraj-stay" x1="0" y1="0" x2="1" y2="1">
      <stop offset="0" stop-color="#f8ece9"/>
      <stop offset="0.55" stop-color="#eccbc3"/>
      <stop offset="1" stop-color="#dba299"/>
    </linearGradient>
    <radialGradient id="vig-abraj-stay" cx="50%" cy="46%" r="72%">
      <stop offset="0%" stop-color="#131210" stop-opacity="0"/>
      <stop offset="76%" stop-color="#131210" stop-opacity="0"/>
      <stop offset="100%" stop-color="#131210" stop-opacity="0.2"/>
    </radialGradient>
    <filter id="bokeh-abraj-stay" x="-60%" y="-60%" width="220%" height="220%">
      <feGaussianBlur stdDeviation="67"/>
    </filter>
    <filter id="shadow-abraj-stay" x="-30%" y="-30%" width="160%" height="160%">
      <feDropShadow dx="0" dy="16" stdDeviation="18" flood-color="#6b1c12" flood-opacity="0.28"/>
    </filter>
    <filter id="grain-abraj-stay">
      <feTurbulence type="fractalNoise" baseFrequency="0.85" numOctaves="2" result="t"/>
      <feColorMatrix in="t" type="matrix" values="0 0 0 0 0.07 0 0 0 0 0.07 0 0 0 0 0.06 0 0 0 0.6 0"/>
    </filter>
  </defs>
  <rect width="1200" height="900" fill="url(#bg-abraj-stay)"/>
  <circle cx="751" cy="460" r="395" fill="#c23b2e" opacity="0.25" filter="url(#bokeh-abraj-stay)"/><circle cx="684" cy="298" r="191" fill="#f8ece9" opacity="0.12" filter="url(#bokeh-abraj-stay)"/><circle cx="906" cy="121" r="190" fill="#e07a63" opacity="0.23" filter="url(#bokeh-abraj-stay)"/><circle cx="333" cy="716" r="112" fill="#c23b2e" opacity="0.21" filter="url(#bokeh-abraj-stay)"/><circle cx="775" cy="293" r="186" fill="#f8ece9" opacity="0.21" filter="url(#bokeh-abraj-stay)"/><circle cx="954" cy="229" r="118" fill="#e07a63" opacity="0.21" filter="url(#bokeh-abraj-stay)"/>
  <g filter="url(#shadow-abraj-stay)">
    <path d="M 96 648 Q 600 120 1128 608" fill="none" stroke="#c23b2e" stroke-width="3" stroke-dasharray="14 14"/><g transform="translate(624 150) rotate(-18)">
    <path d="M -22 0 L 18 -8 L 8 0 L 18 8 Z" fill="#c23b2e"/>
  </g><path d="M 288 396 l 130 0 l 0 170 l -65 40 l -65 -40 Z" fill="#fdf0ee" stroke="#c23b2e" stroke-width="3"/><circle cx="353" cy="430" r="10" fill="none" stroke="#c23b2e" stroke-width="3"/><line x1="313" y1="470" x2="393" y2="470" stroke="#c23b2e" stroke-width="3" opacity="0.8"/><line x1="313" y1="492" x2="393" y2="492" stroke="#c23b2e" stroke-width="3" opacity="0.65"/><line x1="313" y1="514" x2="393" y2="514" stroke="#c23b2e" stroke-width="3" opacity="0.5"/>
  </g>
  <rect width="1200" height="900" fill="url(#vig-abraj-stay)"/>
  <rect width="1200" height="900" filter="url(#grain-abraj-stay)" opacity="0.06"/>
</svg>